<svg xmlns="http://www.w3.org/2000/svg" width="1200" height="630" viewBox="0 0 1200 630">
  <rect width="1200" height="630" fill="#0d1117"/>
  <rect width="5" height="630" fill="#f05032"/>
  <rect x="700" y="50" width="460" height="300" rx="8" fill="#161b22" stroke="#30363d" stroke-width="1"/>
  <rect x="700" y="50" width="460" height="36" rx="8" fill="#21262d"/>
  <rect x="700" y="68" width="460" height="18" fill="#21262d"/>
  <circle cx="722" cy="68" r="6" fill="#ff5f57"/>
  <circle cx="744" cy="68" r="6" fill="#febc2e"/>
  <circle cx="766" cy="68" r="6" fill="#28c840"/>
  <text x="845" y="71" font-family="monospace" font-size="12" fill="#8b949e" text-anchor="middle">bash — git</text>
  <text x="720" y="116" font-family="'Courier New', monospace" font-size="14" fill="#58a6ff">$ git --version</text>
  <text x="720" y="140" font-family="'Courier New', monospace" font-size="14" fill="#8b949e">git version 2.43.0</text>
  <text x="720" y="172" font-family="'Courier New', monospace" font-size="14" fill="#58a6ff">$ git log --oneline</text>
  <text x="720" y="196" font-family="'Courier New', monospace" font-size="14" fill="#f05032">a1b2c3d </text>
  <text x="786" y="196" font-family="'Courier New', monospace" font-size="14" fill="#8b949e">Initial commit</text>
  <text x="720" y="220" font-family="'Courier New', monospace" font-size="14" fill="#f05032">e4f5g6h </text>
  <text x="786" y="220" font-family="'Courier New', monospace" font-size="14" fill="#8b949e">Add README.md</text>
  <text x="720" y="244" font-family="'Courier New', monospace" font-size="14" fill="#f05032">i7j8k9l </text>
  <text x="786" y="244" font-family="'Courier New', monospace" font-size="14" fill="#8b949e">Fix bug login</text>
  <text x="720" y="308" font-family="'Courier New', monospace" font-size="16" fill="#58a6ff">█</text>
  <rect x="60" y="56" width="210" height="34" rx="17" fill="none" stroke="#f05032" stroke-width="1.5"/>
  <text x="165" y="78" font-family="'Courier New', monospace" font-size="13" fill="#f05032" text-anchor="middle" font-weight="bold">Series Git · Bài 01/08</text>
  <text x="60" y="185" font-family="'Segoe UI', Arial, sans-serif" font-size="72" fill="#ffffff" font-weight="bold">Git là gì?</text>
  <text x="60" y="264" font-family="'Segoe UI', Arial, sans-serif" font-size="36" fill="#8b949e">Tại sao mọi developer</text>
  <text x="60" y="308" font-family="'Segoe UI', Arial, sans-serif" font-size="36" fill="#8b949e">cần biết Git?</text>
  <rect x="60" y="430" width="72" height="30" rx="4" fill="none" stroke="#1d4ed8" stroke-width="1"/>
  <text x="96" y="450" font-family="'Courier New', monospace" font-size="13" fill="#60a5fa" text-anchor="middle">#git</text>
  <rect x="144" y="430" width="90" height="30" rx="4" fill="none" stroke="#1d4ed8" stroke-width="1"/>
  <text x="189" y="450" font-family="'Courier New', monospace" font-size="13" fill="#60a5fa" text-anchor="middle">#devops</text>
  <rect x="0" y="596" width="1200" height="34" fill="#161b22"/>
  <text x="60" y="618" font-family="'Courier New', monospace" font-size="12" fill="#484f58">blog.chungnd.dev</text>
  <text x="1140" y="618" font-family="'Courier New', monospace" font-size="12" fill="#f05032" text-anchor="end">01 / 08</text>
</svg>
