<svg xmlns="http://www.w3.org/2000/svg" width="1200" height="630" viewBox="0 0 1200 630">
  <rect width="1200" height="630" fill="#0d1117"/>
  <rect width="5" height="630" fill="#f05032"/>
  <rect x="680" y="50" width="480" height="340" rx="8" fill="#161b22" stroke="#30363d" stroke-width="1"/>
  <rect x="680" y="50" width="480" height="36" rx="8" fill="#21262d"/>
  <rect x="680" y="68" width="480" height="18" fill="#21262d"/>
  <circle cx="702" cy="68" r="6" fill="#ff5f57"/>
  <circle cx="724" cy="68" r="6" fill="#febc2e"/>
  <circle cx="746" cy="68" r="6" fill="#28c840"/>
  <text x="855" y="71" font-family="monospace" font-size="12" fill="#8b949e" text-anchor="middle">bash — my-project</text>
  <text x="700" y="116" font-family="'Courier New', monospace" font-size="13" fill="#58a6ff">$ git init</text>
  <text x="700" y="140" font-family="'Courier New', monospace" font-size="13" fill="#8b949e">Initialized empty Git repository in ./my-project</text>
  <text x="700" y="172" font-family="'Courier New', monospace" font-size="13" fill="#58a6ff">$ git add index.html style.css</text>
  <text x="700" y="204" font-family="'Courier New', monospace" font-size="13" fill="#58a6ff">$ git status</text>
  <text x="700" y="228" font-family="'Courier New', monospace" font-size="13" fill="#8b949e">Changes to be committed:</text>
  <text x="700" y="252" font-family="'Courier New', monospace" font-size="13" fill="#238636">  new file: index.html</text>
  <text x="700" y="276" font-family="'Courier New', monospace" font-size="13" fill="#238636">  new file: style.css</text>
  <text x="700" y="308" font-family="'Courier New', monospace" font-size="13" fill="#58a6ff">$ git commit -m "feat: khởi tạo dự án"</text>
  <text x="700" y="332" font-family="'Courier New', monospace" font-size="13" fill="#8b949e">[main a1b2c3d] feat: khởi tạo dự án</text>
  <text x="700" y="360" font-family="'Courier New', monospace" font-size="16" fill="#58a6ff">█</text>
  <rect x="60" y="56" width="210" height="34" rx="17" fill="none" stroke="#f05032" stroke-width="1.5"/>
  <text x="165" y="78" font-family="'Courier New', monospace" font-size="13" fill="#f05032" text-anchor="middle" font-weight="bold">Series Git · Bài 03/08</text>
  <text x="60" y="185" font-family="'Segoe UI', Arial, sans-serif" font-size="60" fill="#ffffff" font-weight="bold">Git Cơ Bản</text>
  <text x="60" y="260" font-family="'Segoe UI', Arial, sans-serif" font-size="32" fill="#8b949e">init · add · commit</text>
  <text x="60" y="305" font-family="'Segoe UI', Arial, sans-serif" font-size="32" fill="#8b949e">status · log · diff</text>
  <rect x="60" y="430" width="72" height="30" rx="4" fill="none" stroke="#1d4ed8" stroke-width="1"/>
  <text x="96" y="450" font-family="'Courier New', monospace" font-size="13" fill="#60a5fa" text-anchor="middle">#git</text>
  <rect x="144" y="430" width="90" height="30" rx="4" fill="none" stroke="#1d4ed8" stroke-width="1"/>
  <text x="189" y="450" font-family="'Courier New', monospace" font-size="13" fill="#60a5fa" text-anchor="middle">#devops</text>
  <rect x="0" y="596" width="1200" height="34" fill="#161b22"/>
  <text x="60" y="618" font-family="'Courier New', monospace" font-size="12" fill="#484f58">blog.chungnd.dev</text>
  <text x="1140" y="618" font-family="'Courier New', monospace" font-size="12" fill="#f05032" text-anchor="end">03 / 08</text>
</svg>
