<svg xmlns="http://www.w3.org/2000/svg" viewBox="0 0 1200 630" width="1200" height="630">
  <defs>
    <linearGradient id="bg" x1="0" y1="0" x2="1" y2="1">
      <stop offset="0%" stop-color="#6d28d9"/>
      <stop offset="100%" stop-color="#1e1b4b"/>
    </linearGradient>
  </defs>
  <rect width="1200" height="630" fill="url(#bg)"/>
  <g opacity="0.05" stroke="white" stroke-width="1">
    <line x1="0" y1="157" x2="1200" y2="157"/><line x1="0" y1="315" x2="1200" y2="315"/><line x1="0" y1="472" x2="1200" y2="472"/>
  </g>

  <!-- contract document -->
  <g transform="translate(330,140)">
    <rect x="0" y="0" width="280" height="350" rx="14" fill="rgba(255,255,255,0.14)" stroke="rgba(255,255,255,0.5)" stroke-width="2.5"/>
    <rect x="36" y="40" width="160" height="20" rx="6" fill="rgba(255,255,255,0.55)"/>
    <g fill="rgba(255,255,255,0.28)">
      <rect x="36" y="86" width="208" height="11" rx="5"/><rect x="36" y="106" width="208" height="11" rx="5"/>
      <rect x="36" y="126" width="160" height="11" rx="5"/>
      <rect x="36" y="166" width="208" height="11" rx="5"/><rect x="36" y="186" width="180" height="11" rx="5"/>
      <rect x="36" y="206" width="208" height="11" rx="5"/>
    </g>
    <!-- signature line -->
    <line x1="36" y1="280" x2="180" y2="280" stroke="rgba(255,255,255,0.4)" stroke-width="2"/>
    <path d="M 44 274 q 14 -16 26 0 q 12 14 26 -2 q 10 -10 22 2" fill="none" stroke="#c4b5fd" stroke-width="3"/>
  </g>

  <!-- approval seal / checkmark -->
  <g transform="translate(700,330)">
    <circle cx="0" cy="0" r="80" fill="rgba(167,139,250,0.25)" stroke="#a78bfa" stroke-width="4"/>
    <circle cx="0" cy="0" r="62" fill="none" stroke="rgba(196,181,253,0.6)" stroke-width="2" stroke-dasharray="6 6"/>
    <path d="M -32 2 l 20 24 l 44 -52" fill="none" stroke="#ede9fe" stroke-width="9" stroke-linecap="round" stroke-linejoin="round"/>
  </g>
</svg>
