<svg xmlns="http://www.w3.org/2000/svg" viewBox="0 0 1200 630" width="1200" height="630">
  <defs>
    <linearGradient id="bg" x1="0" y1="0" x2="1" y2="1">
      <stop offset="0%" stop-color="#ea580c"/>
      <stop offset="100%" stop-color="#7c2d12"/>
    </linearGradient>
  </defs>
  <rect width="1200" height="630" fill="url(#bg)"/>
  <g opacity="0.06" fill="white">
    <circle cx="150" cy="120" r="3"/><circle cx="450" cy="120" r="3"/><circle cx="750" cy="120" r="3"/><circle cx="1050" cy="120" r="3"/>
    <circle cx="150" cy="510" r="3"/><circle cx="450" cy="510" r="3"/><circle cx="750" cy="510" r="3"/><circle cx="1050" cy="510" r="3"/>
  </g>

  <!-- envelope -->
  <g transform="translate(220,220)">
    <rect x="0" y="0" width="320" height="210" rx="14" fill="rgba(255,255,255,0.16)" stroke="rgba(255,255,255,0.55)" stroke-width="2.5"/>
    <path d="M 0 14 L 160 130 L 320 14" fill="none" stroke="rgba(255,255,255,0.6)" stroke-width="3"/>
  </g>

  <!-- speech bubbles -->
  <g transform="translate(640,200)">
    <rect x="0" y="0" width="240" height="130" rx="20" fill="rgba(255,255,255,0.25)"/>
    <path d="M 50 130 l 0 40 l 40 -40 Z" fill="rgba(255,255,255,0.25)"/>
    <g fill="rgba(120,45,18,0.5)">
      <rect x="28" y="34" width="180" height="14" rx="7"/>
      <rect x="28" y="62" width="150" height="14" rx="7"/>
      <rect x="28" y="90" width="110" height="14" rx="7"/>
    </g>
  </g>
  <g transform="translate(820,360)">
    <rect x="0" y="0" width="170" height="100" rx="18" fill="rgba(253,186,116,0.45)"/>
    <path d="M 110 100 l 0 32 l 34 -32 Z" fill="rgba(253,186,116,0.45)"/>
    <g fill="rgba(120,45,18,0.55)">
      <rect x="24" y="28" width="122" height="12" rx="6"/>
      <rect x="24" y="52" width="92" height="12" rx="6"/>
    </g>
  </g>
</svg>
